<svg width="453" height="75" viewBox="0 0 453 75" fill="none" xmlns="http://www.w3.org/2000/svg">
<path d="M58.616 73.672L15.896 17.608V58.696C15.896 61.128 15.96 63.016 16.088 64.36C16.216 65.64 16.6 66.632 17.24 67.336C17.88 67.976 18.872 68.52 20.216 68.968C21.56 69.416 23.48 69.768 25.976 70.024C26.104 71.048 26.104 72.072 25.976 73.096C24.056 73.096 21.912 73.064 19.544 73C17.24 72.936 15.288 72.904 13.688 72.904C12.088 72.904 10.104 72.936 7.736 73C5.432 73.064 3.352 73.096 1.496 73.096C1.304 72.136 1.304 71.112 1.496 70.024C3.8 69.704 5.592 69.416 6.872 69.16C8.152 68.84 9.08 68.392 9.656 67.816C10.232 67.176 10.584 66.248 10.712 65.032C10.904 63.816 11 62.12 11 59.944V20.584C11 18.024 10.904 16.008 10.712 14.536C10.584 13.064 10.168 11.976 9.464 11.272C8.824 10.504 7.8 9.96 6.392 9.64C5.048 9.256 3.16 8.936 0.728 8.68C0.664 7.72 0.664 6.72799 0.728 5.704C2.712 5.704 4.824 5.736 7.064 5.8C9.304 5.86399 11.544 5.89599 13.784 5.89599C14.104 5.89599 14.968 5.89599 16.376 5.89599C17.848 5.89599 19.128 5.86399 20.216 5.8L59.192 57.064V20.2C59.192 17.768 59.128 15.88 59 14.536C58.936 13.192 58.552 12.2 57.848 11.56C56.504 10.152 53.272 9.25599 48.152 8.872C47.96 7.78399 47.96 6.75999 48.152 5.8C49.368 5.8 50.808 5.832 52.472 5.89599C54.2 5.89599 55.864 5.928 57.464 5.992C59.064 5.992 60.376 5.992 61.4 5.992C63 5.992 64.984 5.96 67.352 5.89599C69.72 5.832 71.832 5.8 73.688 5.8C73.816 6.75999 73.816 7.752 73.688 8.776C70.616 9.16 68.408 9.608 67.064 10.12C65.72 10.568 64.888 11.432 64.568 12.712C64.248 13.992 64.088 16.072 64.088 18.952V73.192C63.448 73.32 62.584 73.416 61.496 73.48C60.408 73.608 59.448 73.672 58.616 73.672ZM99.0515 74.152C94.5075 74.152 90.6675 73.096 87.5315 70.984C84.3955 68.872 81.9955 66.056 80.3315 62.536C78.7315 58.952 77.9315 55.016 77.9315 50.728C77.9315 46.312 78.7635 42.216 80.4275 38.44C82.1555 34.664 84.6515 31.624 87.9155 29.32C91.1795 26.952 95.1475 25.768 99.8195 25.768C105.452 25.768 109.836 27.464 112.972 30.856C116.172 34.184 117.772 38.504 117.772 43.816C117.772 44.456 117.74 45.032 117.676 45.544C117.676 45.992 117.644 46.376 117.58 46.696L87.3395 46.408C87.3395 46.664 87.3395 46.888 87.3395 47.08C87.3395 53.352 88.7795 58.28 91.6595 61.864C94.5395 65.448 98.5715 67.24 103.756 67.24C108.108 67.24 112.396 65.832 116.62 63.016C117.26 63.784 117.74 64.52 118.06 65.224C112.62 71.176 106.284 74.152 99.0515 74.152ZM87.6275 42.856L107.5 42.472C107.564 42.344 107.596 42.184 107.596 41.992C107.596 41.736 107.596 41.576 107.596 41.512C107.596 38.056 106.828 35.176 105.292 32.872C103.82 30.568 101.612 29.416 98.6675 29.416C95.9155 29.416 93.5155 30.536 91.4675 32.776C89.4195 35.016 88.1395 38.376 87.6275 42.856ZM128.914 57.832C129.874 62.056 131.41 65.288 133.522 67.528C135.634 69.704 138.354 70.792 141.682 70.792C144.178 70.792 146.29 70.216 148.018 69.064C149.746 67.848 150.61 65.96 150.61 63.4C150.61 61.48 150.13 59.944 149.17 58.792C148.274 57.64 146.994 56.68 145.33 55.912C143.73 55.08 141.906 54.248 139.858 53.416C137.49 52.456 135.25 51.432 133.138 50.344C131.09 49.192 129.394 47.784 128.05 46.12C126.77 44.392 126.13 42.184 126.13 39.496C126.13 36.424 126.93 33.896 128.53 31.912C130.194 29.864 132.306 28.328 134.866 27.304C137.49 26.28 140.274 25.768 143.218 25.768C144.69 25.768 146.162 25.864 147.634 26.056C149.106 26.248 149.906 26.344 150.034 26.344C151.314 26.536 152.498 26.664 153.586 26.728C154.674 26.728 155.25 26.728 155.314 26.728C155.378 26.728 155.506 26.728 155.698 26.728C155.954 26.728 156.274 26.696 156.658 26.632C156.658 28.68 156.69 30.76 156.754 32.872C156.818 34.984 156.946 37.224 157.138 39.592C157.074 39.592 156.946 39.592 156.754 39.592C156.178 39.656 155.634 39.72 155.122 39.784C154.674 39.784 154.226 39.752 153.778 39.688C152.946 36.104 151.698 33.512 150.034 31.912C148.434 30.248 146.162 29.416 143.218 29.416C140.594 29.416 138.482 29.992 136.882 31.144C135.346 32.296 134.578 33.896 134.578 35.944C134.578 37.608 135.09 38.984 136.114 40.072C137.138 41.096 138.386 41.96 139.858 42.664C141.33 43.368 142.738 43.976 144.082 44.488C146.578 45.448 148.946 46.536 151.186 47.752C153.49 48.904 155.346 50.408 156.754 52.264C158.226 54.12 158.962 56.616 158.962 59.752C158.962 63.08 158.098 65.832 156.37 68.008C154.706 70.12 152.562 71.688 149.938 72.712C147.314 73.672 144.562 74.152 141.682 74.152C140.018 74.152 138.354 74.024 136.69 73.768C135.09 73.512 134.226 73.384 134.098 73.384C133.97 73.384 133.426 73.32 132.466 73.192C131.57 73.064 130.546 72.936 129.394 72.808C128.306 72.68 127.346 72.616 126.514 72.616C126.514 70.632 126.418 68.424 126.226 65.992C126.098 63.56 125.938 60.872 125.746 57.928C125.874 57.928 126.034 57.928 126.226 57.928C126.802 57.864 127.282 57.832 127.666 57.832C128.114 57.768 128.53 57.768 128.914 57.832ZM213.544 73.672L192.808 18.952C191.976 16.648 191.24 14.856 190.6 13.576C190.024 12.296 189.384 11.336 188.68 10.696C187.976 10.056 187.048 9.64 185.896 9.44799C184.808 9.192 183.335 8.968 181.479 8.776C181.287 7.752 181.287 6.72799 181.479 5.704C183.719 5.704 186.056 5.736 188.488 5.8C190.984 5.86399 193.384 5.89599 195.688 5.89599C197.095 5.89599 198.696 5.89599 200.488 5.89599C202.344 5.832 204.168 5.8 205.96 5.8C207.816 5.736 209.448 5.704 210.856 5.704C211.048 6.664 211.048 7.688 210.856 8.776C207.464 9.032 205.096 9.352 203.752 9.736C202.408 10.12 201.736 10.888 201.736 12.04C201.736 12.488 201.832 13.064 202.024 13.768C202.28 14.408 202.568 15.176 202.888 16.072L219.304 60.04L235.336 17.8C235.784 16.584 236.136 15.56 236.392 14.728C236.648 13.832 236.776 13.096 236.776 12.52C236.776 11.24 236.104 10.376 234.76 9.928C233.48 9.416 231.048 9.032 227.464 8.776C227.272 7.688 227.272 6.664 227.464 5.704C228.424 5.704 229.832 5.736 231.688 5.8C233.544 5.8 235.4 5.832 237.256 5.89599C239.112 5.89599 240.52 5.89599 241.48 5.89599C243.528 5.89599 245.352 5.86399 246.952 5.8C248.616 5.736 250.44 5.704 252.424 5.704C252.616 6.72799 252.616 7.752 252.424 8.776C250.568 8.968 249.032 9.16 247.816 9.352C246.664 9.544 245.672 9.96 244.84 10.6C244.008 11.24 243.208 12.264 242.44 13.672C241.736 15.016 240.904 16.936 239.944 19.432L218.728 72.904C217.96 73.16 217.064 73.352 216.04 73.48C215.08 73.608 214.248 73.672 213.544 73.672ZM276.424 73.96C272.2 73.96 269.544 71.848 268.456 67.624C263.912 71.976 259.272 74.152 254.536 74.152C251.272 74.152 248.488 73.192 246.184 71.272C243.944 69.288 242.824 66.568 242.824 63.112C242.824 54.664 251.432 49.352 268.648 47.176C268.648 45.64 268.648 44.072 268.648 42.472C268.712 40.872 268.744 39.176 268.744 37.384C268.744 35.144 267.912 33.416 266.248 32.2C264.648 30.92 262.696 30.28 260.392 30.28C258.728 30.28 257.32 30.536 256.168 31.048C256.168 32.52 255.848 34.024 255.208 35.56C254.568 37.096 253.672 38.408 252.52 39.496C251.432 40.52 250.088 41.032 248.488 41.032C247.08 41.032 245.96 40.648 245.128 39.88C244.36 39.048 243.976 38.056 243.976 36.904C243.976 35.368 244.68 33.928 246.088 32.584C247.56 31.176 249.416 29.992 251.656 29.032C253.896 28.008 256.232 27.208 258.664 26.632C261.096 26.056 263.272 25.768 265.192 25.768C267.56 25.768 269.736 26.216 271.72 27.112C273.768 27.944 275.4 29.224 276.616 30.952C277.896 32.616 278.536 34.696 278.536 37.192C278.536 38.728 278.504 40.744 278.44 43.24C278.376 45.672 278.312 48.296 278.248 51.112C278.248 53.864 278.216 56.488 278.152 58.984C278.088 61.48 278.056 63.496 278.056 65.032C278.056 67.08 278.952 68.104 280.744 68.104C281.896 68.104 283.656 67.72 286.024 66.952C286.28 67.272 286.44 67.624 286.504 68.008C286.632 68.392 286.728 68.744 286.792 69.064C285.192 70.792 283.496 72.04 281.704 72.808C279.976 73.576 278.216 73.96 276.424 73.96ZM268.456 65.032L268.648 50.632C262.76 51.4 258.696 52.648 256.456 54.376C254.28 56.104 253.192 58.312 253.192 61C253.192 63.24 253.768 64.968 254.92 66.184C256.136 67.336 257.64 67.912 259.432 67.912C260.584 67.912 261.864 67.656 263.272 67.144C264.744 66.632 266.472 65.928 268.456 65.032ZM313.016 73.096C311.16 73.096 309.272 73.064 307.352 73C305.432 72.936 303.288 72.904 300.92 72.904C298.552 72.904 296.44 72.936 294.584 73C292.728 73.064 290.84 73.096 288.92 73.096C288.728 72.072 288.728 71.08 288.92 70.12C291.096 69.992 292.696 69.8 293.72 69.544C294.744 69.224 295.416 68.584 295.736 67.624C296.056 66.664 296.216 65.128 296.216 63.016V14.92C296.216 12.936 296.024 11.464 295.64 10.504C295.32 9.48 294.584 8.776 293.432 8.392C292.344 7.944 290.68 7.624 288.44 7.432C288.248 6.6 288.248 5.736 288.44 4.84C291 4.52 293.624 4.04 296.312 3.4C299 2.696 301.752 1.73599 304.568 0.519995L306.2 1.096C306.136 2.504 306.072 4.10399 306.008 5.89599C306.008 7.688 306.008 9.64 306.008 11.752V62.056C306.008 64.552 306.136 66.344 306.392 67.432C306.712 68.52 307.352 69.224 308.312 69.544C309.336 69.8 310.904 69.992 313.016 70.12C313.144 71.08 313.144 72.072 313.016 73.096ZM375.895 73.096C375.703 72.072 375.703 71.08 375.895 70.12C377.815 69.992 379.255 69.8 380.215 69.544C381.175 69.224 381.815 68.584 382.135 67.624C382.519 66.664 382.711 65.128 382.711 63.016V43.624C382.711 39.848 382.135 37 380.983 35.08C379.895 33.16 377.623 32.2 374.167 32.2C369.879 32.2 366.231 33.8 363.223 37C363.351 38.024 363.415 39.112 363.415 40.264V62.056C363.415 64.552 363.543 66.344 363.799 67.432C364.119 68.52 364.759 69.224 365.719 69.544C366.679 69.8 368.151 69.992 370.135 70.12C370.263 71.08 370.263 72.072 370.135 73.096C368.343 73.096 366.551 73.064 364.759 73C362.967 72.936 360.855 72.904 358.423 72.904C356.055 72.904 353.975 72.936 352.183 73C350.455 73.064 348.791 73.096 347.191 73.096C346.999 72.072 346.999 71.08 347.191 70.12C349.047 69.992 350.423 69.8 351.319 69.544C352.279 69.224 352.919 68.584 353.239 67.624C353.559 66.664 353.719 65.128 353.719 63.016V43.624C353.719 39.848 353.175 37 352.087 35.08C350.999 33.16 348.695 32.2 345.175 32.2C341.143 32.2 337.623 33.832 334.615 37.096V62.056C334.615 64.552 334.743 66.344 334.999 67.432C335.319 68.52 335.959 69.224 336.919 69.544C337.943 69.8 339.479 69.992 341.527 70.12C341.655 71.08 341.655 72.072 341.527 73.096C339.735 73.096 337.879 73.064 335.959 73C334.103 72.936 331.959 72.904 329.527 72.904C327.223 72.904 325.143 72.936 323.287 73C321.431 73.064 319.543 73.096 317.623 73.096C317.431 72.072 317.431 71.08 317.623 70.12C319.799 69.992 321.399 69.8 322.423 69.544C323.447 69.224 324.119 68.584 324.439 67.624C324.759 66.664 324.919 65.128 324.919 63.016V41.512C324.919 39.016 324.791 37.16 324.535 35.944C324.343 34.728 323.735 33.896 322.711 33.448C321.751 32.936 320.087 32.52 317.719 32.2C317.527 31.304 317.527 30.472 317.719 29.704C320.407 29.192 322.999 28.584 325.495 27.88C327.991 27.176 330.455 26.312 332.887 25.288L334.519 25.864V32.968C339.703 28.168 345.111 25.768 350.743 25.768C354.263 25.768 356.919 26.504 358.711 27.976C360.503 29.448 361.751 31.272 362.455 33.448C365.207 30.824 368.023 28.904 370.903 27.688C373.783 26.408 376.695 25.768 379.639 25.768C383.863 25.768 387.031 27.016 389.143 29.512C391.319 32.008 392.407 35.592 392.407 40.264V62.056C392.407 64.552 392.535 66.344 392.791 67.432C393.047 68.52 393.655 69.224 394.615 69.544C395.575 69.8 397.047 69.992 399.031 70.12C399.223 71.08 399.223 72.072 399.031 73.096C397.239 73.096 395.447 73.064 393.655 73C391.863 72.936 389.783 72.904 387.415 72.904C384.983 72.904 382.839 72.936 380.983 73C379.191 73.064 377.495 73.096 375.895 73.096ZM428.07 74.152C423.398 74.152 419.302 73.16 415.782 71.176C412.326 69.128 409.638 66.344 407.718 62.824C405.798 59.24 404.838 55.144 404.838 50.536C404.838 45.544 405.83 41.192 407.814 37.48C409.862 33.768 412.71 30.888 416.358 28.84C420.006 26.792 424.198 25.768 428.934 25.768C433.606 25.768 437.67 26.792 441.126 28.84C444.582 30.888 447.27 33.704 449.19 37.288C451.11 40.872 452.07 44.936 452.07 49.48C452.07 54.152 451.046 58.376 448.998 62.152C447.014 65.864 444.23 68.808 440.646 70.984C437.062 73.096 432.87 74.152 428.07 74.152ZM415.686 49.384C415.686 55.912 416.742 61.096 418.854 64.936C421.03 68.712 424.262 70.6 428.55 70.6C432.646 70.6 435.782 68.808 437.958 65.224C440.134 61.576 441.222 56.712 441.222 50.632C441.222 44.168 440.134 39.016 437.958 35.176C435.782 31.336 432.614 29.416 428.454 29.416C424.358 29.416 421.19 31.176 418.95 34.696C416.774 38.216 415.686 43.112 415.686 49.384Z" fill="black"/>
</svg>