<svg width="427" height="381" viewBox="0 0 427 381" fill="none" xmlns="http://www.w3.org/2000/svg">
<path fill-rule="evenodd" clip-rule="evenodd" d="M83.8287 223.053C95.9068 225.298 104.438 221.077 108.838 220.112C110.118 219.842 115.775 222.357 124.71 222.357C127.274 222.227 129.786 221.585 132.1 220.471C134.413 219.357 136.48 217.792 138.18 215.869C138.472 215.532 137.933 215.106 137.641 215.442C134.178 218.853 129.526 220.784 124.665 220.83C119.939 220.625 115.253 219.872 110.701 218.585C107.626 217.889 108.097 218.742 100.307 220.83C94.9859 222.28 89.4268 222.638 83.9634 221.885C77.0488 220.898 75.7467 219.349 75.4549 220.134C75.425 220.221 75.4293 220.315 75.4669 220.399C75.5044 220.482 75.5724 220.548 75.6569 220.583C78.2969 221.662 81.0331 222.489 83.8287 223.053ZM241.675 192.745C251.575 191.96 259.635 183.227 258.894 177.951C258.907 177.898 258.909 177.842 258.898 177.789C258.886 177.735 258.863 177.685 258.83 177.641C258.796 177.598 258.753 177.563 258.704 177.539C258.655 177.515 258.601 177.502 258.546 177.502C258.491 177.502 258.437 177.515 258.388 177.539C258.339 177.563 258.296 177.598 258.262 177.641C258.229 177.685 258.205 177.735 258.194 177.789C258.183 177.842 258.184 177.898 258.198 177.951C257.839 180.017 256.851 181.922 255.369 183.406C252.279 186.829 248.436 189.488 244.144 191.174C241.518 192.229 241.136 191.937 241.226 192.453C241.23 192.505 241.245 192.555 241.272 192.6C241.298 192.644 241.335 192.682 241.378 192.711C241.421 192.739 241.471 192.757 241.522 192.763C241.574 192.769 241.626 192.763 241.675 192.745ZM50.5803 230.214C50.6666 230.185 50.7376 230.122 50.7776 230.04C50.8176 229.958 50.8233 229.863 50.7936 229.777C50.7638 229.69 50.701 229.619 50.6189 229.579C50.5368 229.539 50.4421 229.534 50.3558 229.563C44.8224 230.762 39.0966 230.762 33.5632 229.563C31.1835 228.957 31.0488 228.463 30.8018 228.912C30.7583 228.991 30.7457 229.083 30.7665 229.17C30.7873 229.257 30.8399 229.333 30.9141 229.384C36.1449 233.155 44.878 232.998 50.5803 230.214ZM325.166 66.1049C325.907 66.3518 325.166 65.3416 328.871 58.7413C336.391 45.1141 349.906 33.1707 363.623 25.5153C369.168 22.4172 369.64 22.7315 369.415 22.1702C369.372 22.0881 369.3 22.0245 369.213 21.9914C369.127 21.9584 369.031 21.9581 368.944 21.9906C346.067 30.9706 329.544 49.6041 324.942 65.6559C324.924 65.6999 324.916 65.7472 324.918 65.7945C324.92 65.8418 324.932 65.8882 324.954 65.9306C324.975 65.973 325.005 66.0104 325.041 66.0404C325.078 66.0705 325.121 66.0924 325.166 66.1049ZM392.112 83.9975C382.167 76.5441 366.407 72.9746 353.947 71.448C345.626 70.3395 337.206 70.1738 328.848 70.9541C328.801 70.9569 328.755 70.9691 328.712 70.9898C328.67 71.0106 328.632 71.0395 328.6 71.075C328.569 71.1104 328.545 71.1517 328.53 71.1965C328.515 71.2412 328.508 71.2885 328.511 71.3357C328.511 71.9419 328.646 71.3357 336.683 71.65C353.161 72.2337 378.979 76.14 391.618 84.5588C392.09 84.8057 392.494 84.2445 392.112 83.9975ZM314.525 201.456C313.068 202.188 311.509 202.695 309.9 202.96C309.859 202.941 309.814 202.93 309.769 202.928C309.723 202.926 309.678 202.933 309.635 202.949C309.593 202.965 309.553 202.988 309.52 203.019C309.486 203.05 309.459 203.087 309.44 203.128C309.421 203.17 309.41 203.214 309.408 203.26C309.406 203.305 309.413 203.351 309.429 203.393C309.445 203.436 309.468 203.475 309.499 203.509C309.53 203.542 309.567 203.57 309.608 203.589C310.055 203.914 310.571 204.131 311.116 204.221C311.661 204.312 312.22 204.274 312.747 204.11C313.275 203.947 313.757 203.662 314.155 203.279C314.554 202.896 314.857 202.426 315.041 201.905C315.101 201.836 315.131 201.747 315.124 201.657C315.118 201.566 315.076 201.482 315.008 201.422C314.939 201.363 314.85 201.333 314.759 201.339C314.669 201.345 314.585 201.387 314.525 201.456ZM38.6369 300.348C34.3938 300.73 35.1347 302.593 39.3777 302.009C43.6208 301.426 41.3533 300.101 38.6369 300.348ZM105.134 291.997C104.688 292.031 104.245 292.099 103.809 292.199C101.385 292.872 101.923 293.703 104.326 293.748C108.995 293.77 109.265 291.682 105.134 291.997ZM36.347 349.02C34.5061 349.02 32.1713 350.03 35.2245 350.659C35.9688 350.769 36.7252 350.769 37.4695 350.659C40.6349 349.895 38.0083 348.975 36.347 349.02ZM101.699 336.964C98.2192 337.121 99.6111 338.446 101.699 338.648C105.336 339.03 106.234 336.785 101.699 336.964ZM167.163 369.898C162.673 370.123 166.49 371.919 169.408 371.582C172.327 371.245 171.451 369.674 167.163 369.898ZM235.636 352.522C231.146 352.342 232.74 354.296 236.04 354.273C238.622 354.251 239.497 352.724 235.636 352.522ZM310.327 378.676C307.386 378.676 305.635 379.911 308.935 380.36C309.875 380.461 310.823 380.461 311.764 380.36C315.176 379.686 312.953 378.631 310.327 378.676ZM364.454 322.372C369.348 322.776 369.46 320.935 364.454 320.643C359.043 320.306 360.839 322.08 364.454 322.372ZM398.263 311.865C396.872 312.09 396.018 312.875 397.837 313.392C398.729 313.616 399.662 313.616 400.553 313.392C403.247 312.314 400.351 311.528 398.263 311.865ZM86.5901 81.775C89.6794 81.7692 92.737 81.1527 95.5872 79.9609C98.4374 78.7692 101.024 77.0258 103.198 74.8309C105.372 72.6361 107.091 70.0331 108.255 67.1716C109.419 64.3102 110.007 61.2468 109.983 58.1576C109.795 52.0759 107.246 46.3064 102.878 42.071C98.5091 37.8357 92.6635 35.4672 86.5789 35.4672C80.4943 35.4672 74.6486 37.8357 70.28 42.071C65.9115 46.3064 63.3631 52.0759 63.1747 58.1576C63.1511 61.2487 63.7391 64.3139 64.9049 67.1768C66.0707 70.0397 67.7914 72.6437 69.9678 74.8389C72.1442 77.034 74.7333 78.777 77.5861 79.9674C80.4388 81.1578 83.4989 81.7721 86.5901 81.775ZM70.9873 42.5099C72.9848 40.3714 75.4006 38.6662 78.0846 37.5004C80.7687 36.3346 83.6638 35.7331 86.5901 35.7331C89.5164 35.7331 92.4115 36.3346 95.0956 37.5004C97.7796 38.6662 100.195 40.3714 102.193 42.5099C106.236 46.6907 108.481 52.2885 108.448 58.1044C108.414 63.9203 106.104 69.4918 102.013 73.6256C99.9932 75.6606 97.5905 77.2757 94.9434 78.3779C92.2964 79.48 89.4574 80.0475 86.5901 80.0475C83.7228 80.0475 80.8838 79.48 78.2367 78.3779C75.5897 77.2757 73.187 75.6606 71.1669 73.6256C67.0759 69.4918 64.7662 63.9203 64.7326 58.1044C64.6991 52.2885 66.9443 46.6907 70.9873 42.5099ZM325.503 67.6539L325.481 67.609V67.6315L325.503 67.6539ZM267.851 104.517C267.851 104.517 273.621 100.498 274.092 100.139C276.54 98.2533 279.548 96.3675 281.95 94.8184C288.348 90.7101 288.101 90.3284 296.655 85.5915C299.124 84.1996 319.98 72.9072 321.799 71.8296C321.871 71.7791 321.921 71.7042 321.942 71.6188C321.962 71.5334 321.95 71.4436 321.909 71.3662C321.867 71.2889 321.799 71.2294 321.717 71.199C321.634 71.1685 321.544 71.1693 321.462 71.201C313.223 75.4441 297.194 82.2464 285.273 90.5978C281.158 93.2706 277.179 96.1479 273.352 99.2186C271.208 100.818 269.147 102.527 267.178 104.337C267.177 104.417 267.202 104.496 267.25 104.56C267.299 104.623 267.367 104.669 267.445 104.69C267.522 104.711 267.604 104.705 267.678 104.674C267.752 104.642 267.813 104.587 267.851 104.517ZM237.207 233.672C238.653 234.441 240.261 234.857 241.899 234.884C242.618 234.884 243.089 234.368 243.246 233.312C243.404 232.248 243.404 231.166 243.246 230.102C242.483 225.028 241.001 226.263 241.338 226.802C239.901 227.184 235.097 232.572 237.207 233.672ZM241.473 227.588C241.498 227.598 241.524 227.604 241.551 227.604C241.578 227.604 241.605 227.598 241.63 227.588C241.813 229.447 241.813 231.319 241.63 233.178C240.552 233.007 239.497 232.714 238.487 232.302C239.254 230.597 240.259 229.01 241.473 227.588Z" fill="#7E7E81"/>
<path fill-rule="evenodd" clip-rule="evenodd" d="M360.278 93.9649L365.509 88.7341L368.091 95.8507C368.27 96.3446 366.429 95.4915 393.482 106.694C393.908 106.874 393.639 106.874 400.217 104.449C401.115 112.104 401.025 111.97 401.317 112.284C403.113 114.192 417.256 129.211 419.277 130.94C423.116 134.33 431.512 110.398 423.452 97.6692C407.109 71.9639 386.365 64.2636 356.327 62.0859C350.4 61.6818 337.199 64.0391 331.34 65.1616C344.496 57.6857 343.912 58.3143 343.867 57.7531L343.441 51.8038L349.008 52.5222C349.367 52.5222 347.055 54.0937 384.681 28.9722C385.22 28.613 385.085 28.9722 385.085 21.9004C390.339 20.9126 390.99 20.8228 391.214 20.733C393.19 19.9024 408.703 13.5266 410.431 12.2694C410.644 12.1427 410.799 11.9393 410.866 11.7012C410.933 11.4631 410.906 11.2084 410.791 10.9897C404.617 0.123912 395.39 -0.54959 383.267 1.60561C360.458 5.62416 345.596 20.3065 331.116 38.1991C326.705 44.0967 323.974 51.079 323.213 58.4041C314.435 43.632 299.394 38.3563 283.881 32.0703C261.049 22.8433 210.177 22.2821 189.164 37.0093C179.302 43.7084 171.374 52.8828 166.175 63.6125C165.996 63.9717 165.951 64.7575 167.006 65.0493C170.755 66.082 204.363 65.0493 208.269 65.0493C208.808 65.0493 208.83 64.6677 213.41 61.2328C213.724 62.4227 214.106 64.1962 214.308 65.2738C214.351 65.4717 214.462 65.648 214.622 65.7714C214.783 65.8948 214.982 65.9571 215.184 65.9473C250.206 64.533 248.073 64.735 248.41 64.3758C248.41 64.3758 252.114 60.1777 253.798 58.5164C254.013 59.1419 254.193 59.779 254.337 60.4246C255.302 64.6677 254.808 65.2738 255.594 65.5208C262.643 67.7658 277.64 72.2558 285.093 74.0069C262.957 81.0562 249.757 88.8014 236.174 108.064C231.234 115.59 227.38 123.775 224.725 132.377C223.078 132.214 221.423 132.592 220.01 133.454C219.045 134.105 219.382 135.699 219.741 136.8C216.98 136.261 215.476 137.54 216.396 140.347C217.137 142.592 219.494 145.712 219.494 147.306C219.337 147.082 218.955 146.453 218.866 146.341C216.596 144.603 213.769 143.757 210.918 143.961C208.134 143.961 205.867 146.79 204.026 148.114C205.8 142.547 202.589 139.314 194.597 146.835C194.774 146.329 194.828 145.787 194.754 145.256C194.68 144.725 194.48 144.22 194.171 143.781C191.926 141.536 186.538 146.52 184.36 147.822C184.36 146.902 185.056 144.971 183.035 143.961C179.78 142.322 177.468 145.645 175.47 148.451C174.706 145.33 170.755 144.635 167.769 145.824C166.018 146.703 164.653 148.197 163.937 150.02C163.22 151.843 163.202 153.867 163.885 155.702C160.54 153.951 156.567 152.806 156.41 156.578C156.402 157.539 156.515 158.497 156.746 159.429C155.175 158.441 152.75 157.184 151.089 158.015C147.946 159.609 148.844 162.819 150.64 165.827C130.996 165.827 12.6398 168.072 2.46997 168.634C2.28257 168.677 2.11552 168.783 1.99594 168.934C1.87636 169.085 1.81129 169.272 1.81129 169.464C1.81129 169.657 1.87636 169.844 1.99594 169.994C2.11552 170.145 2.28257 170.251 2.46997 170.295C100.711 169.083 277.842 168.05 278.762 168.566C294.477 179.477 265.517 208.415 245.446 212.86C239.149 208.38 232.614 204.243 225.87 200.468C225.309 200.176 225.196 201.119 225.107 201.747C225.017 202.376 224.927 203.049 224.837 203.992C219.057 197.962 212.206 193.059 204.632 189.535C189.681 183.204 179.937 188.3 171.518 201.86C167.903 208.066 164.896 214.607 162.538 221.391C160.505 227.375 158.782 233.459 157.375 239.62C153.761 240.351 150.051 240.473 146.397 239.98C138.001 238.925 125.833 235.737 123.341 236.567C118.536 238.184 114.563 242.135 109.579 243.796C101.605 246.552 93.153 247.655 84.7387 247.038C76.3244 246.42 68.1241 244.095 60.6379 240.204C58.3929 239.127 44.1147 243.617 40.8819 244.29C32.8897 245.906 12.5276 240.878 0.853566 232.167C0.778817 232.13 0.693652 232.121 0.612634 232.14C0.531616 232.159 0.459777 232.206 0.4094 232.272C0.359022 232.339 0.333236 232.42 0.336449 232.503C0.339663 232.587 0.371676 232.666 0.427016 232.728C12.2806 241.708 32.7999 246.872 41.084 245.255C43.1045 244.851 58.595 240.429 60.1216 241.192C67.737 245.203 76.0898 247.619 84.6702 248.295C93.2506 248.97 101.879 247.89 110.028 245.121C115.236 243.392 119.008 239.531 123.812 237.959C125.72 237.331 138.315 240.496 146.262 241.506C149.85 242.026 153.5 241.943 157.061 241.259C156.073 245.547 152.795 260.521 152.571 263.462C152.544 263.616 152.55 263.773 152.589 263.924C152.628 264.075 152.698 264.216 152.795 264.338C153.177 264.697 153.895 264.72 158.655 264.809C157.442 272.218 157.555 271.657 157.016 272.33C154.628 274.79 152.07 277.078 149.36 279.177C147.677 280.569 145.521 282.971 146.487 284.947C147.07 286.092 148.53 286.159 149.809 286.047C149.809 286.653 149.809 287.821 150.393 287.978C151.381 288.202 161.079 288.112 162.741 288.09L164.469 290.335C161.977 294.376 145.319 321.967 145.723 326.659C145.858 328.051 148.575 328.792 150.056 329.196C149.764 329.959 149.473 330.723 149.203 331.306C148.934 331.89 148.979 331.912 148.866 332.092C148.754 332.272 140.291 334.337 136.452 337.121C133.937 338.917 134.207 340.848 135.554 341.611C139.235 343.744 159.485 343.295 160.608 342.105C162.089 340.533 163.234 333.866 163.616 331.71C165.195 332.011 166.82 331.957 168.375 331.553C175.78 325.541 182.66 318.909 188.94 311.73C191.544 313.324 194.305 314.85 197.224 316.22C194.979 318.757 170.935 345.562 170.688 347.515C170.351 349.962 177.423 352.679 179.511 351.399C180.139 350.995 181.756 349.154 206.967 320.216C211.656 321.804 216.481 322.961 221.38 323.673C229.136 324.789 236.959 325.374 244.795 325.424C253.641 330.274 264.327 336.088 271.152 339.77C244.436 372.816 245.716 371.088 245.716 371.716C245.716 372.906 247.489 374.118 248.5 374.747C249.51 375.376 251.44 376.319 252.496 375.757C254.045 374.904 277.976 345.517 279.166 344.058C291.963 350.793 302.829 356.495 305.702 357.91C306.623 358.381 307.386 357.461 307.947 356.585C308.633 355.456 309.219 354.269 309.698 353.038C309.762 352.848 309.759 352.642 309.69 352.454C309.621 352.266 309.489 352.108 309.317 352.005L284.15 337.974L299.573 319.161L375.14 361.12C375.326 361.2 375.532 361.224 375.732 361.188C375.931 361.152 376.116 361.058 376.262 360.918C377.655 359.076 378.802 357.061 379.675 354.924C379.944 354.093 379.495 353.801 378.934 353.442C378.822 353.442 334.169 328.253 305.365 312.089L321.327 292.558C325.186 292.719 329.034 292.039 332.604 290.566C336.174 289.093 339.381 286.862 342.004 284.027C342.228 286.631 342.385 288.696 342.498 290.133C342.517 290.21 342.562 290.279 342.625 290.328C342.688 290.377 342.766 290.403 342.846 290.403C342.925 290.403 343.003 290.377 343.066 290.328C343.129 290.279 343.174 290.21 343.194 290.133C343.059 287.888 342.902 285.643 342.745 283.263C348.604 276.528 350.961 266.538 351.051 257.581C353.407 257.14 355.732 256.548 358.011 255.807C358.1 255.807 358.186 255.771 358.249 255.708C358.312 255.645 358.347 255.56 358.347 255.47C358.347 255.381 358.312 255.295 358.249 255.232C358.186 255.169 358.1 255.133 358.011 255.133C355.827 255.162 353.649 255.372 351.5 255.762C360.794 244.38 376.958 224.332 379.697 220.83C386.432 260.162 386.881 289.998 387.734 292.67C387.734 293.141 388.408 293.501 388.408 292.378C388.418 292.319 388.418 292.258 388.408 292.198C387.308 280.704 386.545 254.37 380.842 219.393C400.755 194.316 399.88 195.012 399.431 194.294C398.533 192.925 394.941 191.735 392.426 191.645C392.18 191.645 392.629 191.173 386.769 198.38C384.367 197.751 380.82 197.033 376.577 196.27C374.736 187.29 372.67 178.467 370.291 169.33C419.883 170.497 417.211 170.699 417.593 170.07L420.04 170.295C420.093 170.308 420.148 170.31 420.202 170.299C420.256 170.287 420.306 170.264 420.349 170.231C420.393 170.197 420.428 170.154 420.452 170.105C420.476 170.056 420.488 170.002 420.488 169.947C420.488 169.892 420.476 169.838 420.452 169.789C420.428 169.74 420.393 169.697 420.349 169.663C420.306 169.63 420.256 169.606 420.202 169.595C420.148 169.584 420.093 169.585 420.04 169.599L417.57 169.374C417.683 166.119 417.211 162.842 414.136 161.719C416.044 160.776 419.164 159.474 417.885 157.072C416.605 154.67 413.395 157.229 412.115 157.072C411.891 155.59 414.36 150.808 409.87 149.686C408.228 149.674 406.587 149.749 404.954 149.91C405.784 148.406 407.423 145.735 407.199 144.096C406.997 143.041 406.099 142.21 403.651 142.816C403.158 142.951 401.406 143.647 400.172 143.961C400.422 143.595 400.633 143.204 400.8 142.794C401.227 140.759 400.857 138.638 399.768 136.867C397.163 132.983 393.369 135.969 390.204 137.428C390.794 136.402 391.118 135.244 391.147 134.061C391.035 131.95 388.655 131.456 386.657 132.04C385.007 132.662 383.408 133.413 381.875 134.285C382.529 133.367 382.814 132.235 382.673 131.117C382.531 129.998 381.974 128.973 381.112 128.246C379.742 127.348 376.285 128.246 374.713 128.852C376.958 124.856 376.15 121.421 374.309 119.58C372.468 117.739 368.225 119.356 366.34 119.176C366.814 118.52 367.228 117.821 367.574 117.088C368.001 115.082 367.63 112.989 366.542 111.251C366.304 110.876 365.971 110.57 365.577 110.365C365.182 110.16 364.741 110.063 364.297 110.084C362.052 110.084 358.213 113.047 357.562 112.329C356.911 111.611 357.562 109.051 355.317 107.839C353.072 106.627 350.445 107.435 350.445 111.319C346.606 102.339 342.879 94.8405 339.534 88.6443C361.445 94.7058 359.874 94.4139 360.278 93.9649ZM159.62 340.915C157.106 341.499 138.652 341.611 136.205 339.972C135.352 337.907 147.699 333.91 149.271 333.08C149.922 332.721 150.55 330.498 150.887 329.353C154.792 330.364 158.759 331.114 162.763 331.598C162.247 333.215 160.653 339.613 159.62 340.915ZM332.081 38.9624C346.561 21.5412 361.445 7.10586 383.559 3.26691C394.559 1.35866 403.068 1.60561 408.882 11.1693C405.896 12.7857 393.796 17.9043 390.653 19.1166L384.098 20.3738C383.905 20.414 383.732 20.5179 383.606 20.6685C383.479 20.8192 383.407 21.008 383.402 21.2045V27.8272L348.918 51.3099C342.475 50.5691 342.677 50.5017 342.385 50.7711C342.094 51.0405 342.161 50.7711 342.745 57.5061C341.218 58.4041 334.124 62.5125 328.871 65.633C323.191 66.7555 324.493 66.6208 323.46 66.5086C323.505 56.9898 325.974 46.3036 332.081 38.9624ZM256.469 64.2187C256.229 61.7163 255.663 59.256 254.786 56.9C254.733 56.7959 254.657 56.7053 254.563 56.6353C254.47 56.5652 254.361 56.5175 254.247 56.4959C253.73 56.4959 253.326 56.8326 252.9 57.2367C251.463 58.6062 248.41 62.0635 247.467 63.0064L215.812 64.1738C215.61 63.1635 215.049 60.5369 214.712 59.5491C214.673 59.4257 214.607 59.3129 214.518 59.219C214.429 59.1252 214.32 59.0528 214.198 59.0074C214.077 58.962 213.947 58.9447 213.819 58.9569C213.69 58.969 213.566 59.0103 213.455 59.0776C212.759 59.4368 208.561 62.7819 207.932 63.2758C202.118 63.4554 173.921 64.1962 168.173 63.5003C173.258 53.4278 180.811 44.8081 190.13 38.4461C210.312 24.3699 260.645 24.3699 283.364 33.3499C299.259 39.6359 314.323 44.7096 323.056 59.8634C322.814 62.0476 322.694 64.2436 322.697 66.4412C320.564 66.2841 322.046 66.778 318.454 64.3534C298.249 50.7262 252.361 36.448 229.148 43.3177C229.06 43.3439 228.985 43.4027 228.939 43.4819C228.894 43.5612 228.88 43.6551 228.901 43.7443C229.26 45.0239 236.556 39.5012 265.988 45.8097C282.893 49.4017 305.567 57.2143 319.262 66.2841C308.823 66.1269 300.988 69.0005 287.226 73.2436C280.379 71.717 263.114 66.329 256.469 64.2187ZM237.521 108.939C252.563 87.4095 267.38 80.4949 292.681 72.817C300.516 70.4149 309.137 67.1596 317.376 67.1147C320.002 67.0011 322.633 67.1364 325.234 67.5188C325.234 67.5188 325.638 67.5188 325.57 67.6535C325.917 71.1399 325.336 74.656 323.887 77.8458C321.893 82.7522 319.185 87.3367 315.85 91.4505C307.116 102.676 303.435 106.896 291.312 114.664C290.032 114.394 285.25 113.047 284.038 112.688C283.928 112.658 283.812 112.653 283.7 112.673C283.587 112.693 283.481 112.738 283.388 112.805C283.296 112.872 283.219 112.958 283.165 113.059C283.11 113.159 283.079 113.27 283.073 113.384L282.421 123.15C274.182 126.495 258.108 133.657 251.508 139.538C249.263 134.263 249.016 131.389 247.669 131.389C246.816 131.389 246.816 131.524 244.189 142.21C240.799 143.804 226.611 150.404 222.884 150.943C221.739 147.531 226.97 123.913 237.521 108.939ZM322.248 104.045C320.003 102.967 316.568 104.763 314.525 105.998C315.423 104.404 316.77 101.755 315.019 100.924C312.936 100.398 310.729 100.704 308.868 101.778C311.225 99.0611 313.627 95.9854 316.613 92.0791C319.116 88.851 321.282 85.3756 323.078 81.7072C323.505 86.6687 324.336 95.8283 325.436 107.659C324.293 107.692 323.172 107.983 322.158 108.513C322.831 107.435 324.538 105.19 322.248 104.045ZM152.391 165.805C150.797 163.56 149.248 160.574 151.695 159.339C152.45 159.134 153.255 159.23 153.94 159.609C155.216 160.21 156.415 160.964 157.51 161.854C157.636 161.948 157.79 162 157.948 162.001C158.106 162.002 158.26 161.952 158.388 161.86C158.516 161.767 158.61 161.636 158.658 161.485C158.706 161.335 158.705 161.173 158.655 161.023C158.06 159.479 157.8 157.826 157.891 156.174C157.891 155.949 157.891 155.77 158.183 155.702C159.005 155.536 159.858 155.622 160.63 155.949C161.975 156.426 163.263 157.051 164.469 157.813C164.585 157.88 164.717 157.915 164.851 157.915C164.985 157.915 165.116 157.88 165.232 157.813C166.377 157.072 163.975 154.355 165.232 150.606C165.456 149.85 165.843 149.152 166.367 148.562C166.891 147.972 167.538 147.505 168.263 147.194C170.8 146.184 174.19 146.745 174.212 149.686V150.314C174.21 150.451 174.248 150.585 174.324 150.699C174.399 150.813 174.507 150.901 174.634 150.953C174.76 151.004 174.899 151.015 175.033 150.985C175.166 150.956 175.287 150.886 175.38 150.786C177.064 149.102 179.421 143.781 182.429 145.263C183.35 145.735 183.08 146.52 183.013 147.508C182.946 148.496 183.305 149.574 184.203 149.461C185.64 149.282 194.193 141.065 193.385 146.296C193.202 147.272 192.901 148.222 192.487 149.125C192.438 149.262 192.437 149.411 192.483 149.549C192.529 149.687 192.621 149.805 192.742 149.885C192.863 149.966 193.008 150.003 193.153 149.991C193.298 149.979 193.435 149.919 193.542 149.82C195.405 147.733 201.108 142.345 202.948 144.186C203.51 144.747 203.083 147.127 202.814 147.935C202.648 148.217 202.453 148.481 202.23 148.72C201.826 149.327 202.028 150 202.769 150C205.261 150 207.865 145.286 210.896 145.286C213.432 145.104 215.95 145.819 218.012 147.306C218.237 147.531 219.18 149.776 220.078 148.855C221.762 147.194 219.18 143.871 217.833 141.29C217.361 140.347 216.576 138.528 217.563 138.102C218.409 137.868 219.307 137.915 220.123 138.236C220.527 139.067 221.245 140.481 222.009 139.808C222.772 139.134 222.547 138.146 220.931 137.383C220.715 136.867 220.542 136.334 220.415 135.789C220.415 135.475 220.235 134.667 220.415 134.487C221.549 133.804 222.865 133.483 224.186 133.567C223.176 136.755 219.292 150 221.627 152.357C221.939 152.62 222.343 152.749 222.749 152.717C226.072 152.559 242.169 145.039 245.199 143.737C245.828 143.445 245.469 143.579 247.759 134.757C249.847 140.234 250.138 141.783 251.194 141.806C252.249 141.828 251.71 140.077 263.721 133.657C272.97 128.717 283.387 124.497 283.387 124.497C283.527 124.444 283.649 124.352 283.741 124.233C283.832 124.114 283.888 123.973 283.903 123.823L284.375 114.574C291.11 116.392 291.334 116.46 291.716 116.213C297.341 112.743 302.507 108.579 307.094 103.82C309.339 102.563 312.819 101.082 314.525 101.935C315.67 102.518 313.335 106.425 312.46 107.502C312.406 107.596 312.385 107.705 312.399 107.812C312.414 107.92 312.463 108.019 312.54 108.096C312.616 108.172 312.716 108.221 312.823 108.236C312.93 108.25 313.039 108.229 313.133 108.176C314.233 107.368 319.419 103.955 321.709 105.1C323.999 106.245 319.352 109.253 320.766 110.196C321.193 110.466 321.731 110.084 322.203 109.77C323.181 109.184 324.296 108.867 325.436 108.849C326.738 122.544 328.354 139.673 330.083 157.925C326.298 158.866 322.824 160.778 320.003 163.47C316.402 163.144 312.777 163.715 309.451 165.131C308.284 165.625 308.553 166.725 309.721 166.703C309.451 166.703 310.394 166.703 311.966 167.107C312.549 166.927 188.356 165.917 152.391 165.805ZM323.752 213.174C323.752 213.174 324.493 213.556 325.458 214.117C321.417 216.811 312.527 221.638 311.696 223.277C311.594 223.512 311.574 223.775 311.639 224.024C311.704 224.272 311.851 224.491 312.055 224.646C312.617 225.275 312.482 224.803 312.392 225.679V229.563C312.168 231.575 311.747 233.56 311.135 235.49C310.11 235.736 309.032 235.65 308.059 235.243C302.559 232.841 299.416 228.822 300 222.805C302.784 223.21 304.378 223.681 304.916 223.726C305.455 223.771 306.914 222.783 305.208 222.132C304.176 221.75 304.22 209.425 305.545 210.009C305.626 210.025 305.711 210.013 305.784 209.973C305.858 209.934 305.915 209.871 305.947 209.794C305.979 209.717 305.983 209.632 305.959 209.552C305.934 209.473 305.883 209.404 305.814 209.358C308.059 205.946 308.059 206.013 308.059 205.541C308.028 205.427 307.972 205.321 307.894 205.232C307.816 205.142 307.719 205.072 307.61 205.025C306.759 204.566 306.042 203.895 305.526 203.077C305.011 202.259 304.716 201.321 304.669 200.355C304.561 198.9 304.729 197.438 305.163 196.045C306.021 196.446 306.962 196.634 307.907 196.595C308.853 196.556 309.775 196.291 310.596 195.821C310.125 196.786 309.608 197.931 310.282 198.739C310.805 199.278 311.491 199.629 312.233 199.739C312.976 199.849 313.734 199.71 314.39 199.345C314.432 199.329 314.469 199.305 314.501 199.274C314.533 199.243 314.559 199.206 314.576 199.166C314.594 199.125 314.604 199.081 314.604 199.037C314.605 198.993 314.597 198.949 314.581 198.907C314.565 198.866 314.541 198.828 314.51 198.797C314.479 198.765 314.442 198.739 314.402 198.721C314.361 198.704 314.317 198.694 314.273 198.693C314.229 198.692 314.185 198.7 314.143 198.717C313.236 198.751 312.347 198.447 311.651 197.863C312.276 196.308 313.027 194.807 313.896 193.374C316.299 194.563 316.141 193.374 315.872 194.586C315.221 200.198 321.619 201.994 325.503 198.268C326.147 197.59 326.705 196.836 327.164 196.023C327.808 196.154 328.476 196.107 329.095 195.888C330.33 196.674 330.173 196.225 330.105 196.898C330.061 197.216 330.1 197.541 330.218 197.84C330.336 198.139 330.529 198.402 330.779 198.604C330.825 198.864 330.825 199.13 330.779 199.39C327.456 201.253 327.658 200.153 327.097 201.837C325.907 202.466 325.952 203.745 325.66 204.89C325.525 205.407 324.089 210.503 323.527 212.344C323.482 212.486 323.479 212.638 323.519 212.781C323.559 212.925 323.64 213.054 323.752 213.152V213.174ZM313.358 225.881C314.598 226.79 315.473 228.111 315.827 229.608C316.141 231.179 315.827 231.561 316.141 232.1C316.251 232.268 316.407 232.4 316.59 232.481C315.33 233.562 313.915 234.448 312.392 235.108C312.859 233.331 313.197 231.523 313.402 229.698C313.492 228.889 313.29 227.206 313.358 225.859V225.881ZM313.358 223.636C315.872 221.391 326.087 215.083 327.344 213.376C328.938 214.342 331.34 215.824 332.844 216.901C328.354 220.493 322.54 225.118 317.511 229.81C317.197 226.712 315.535 225.702 313.447 223.703L313.358 223.636ZM265.741 267.952C272.434 267.647 279.105 266.965 285.722 265.909C288.663 271.097 292.312 275.85 296.565 280.031C301.001 284.121 306.045 287.499 311.517 290.043C308.217 295.88 302.784 303.715 297.238 307.509L282.107 299.046C280.558 293.815 279.997 289.19 278.313 284.139C277.328 280.675 275.382 277.562 272.701 275.159C270.747 273.093 265.966 268.424 265.651 267.997C265.337 267.571 265.629 268.065 265.741 267.952ZM285.205 264.293C280.401 265.011 267.47 266.538 263.025 266.156C263.912 257.588 264.25 248.972 264.035 240.361C267.402 243.257 271.96 247.096 276.338 250.958C274.46 251.538 272.831 252.732 271.713 254.348C271.572 254.631 271.499 254.943 271.498 255.259C271.497 255.575 271.569 255.888 271.708 256.172C271.846 256.456 272.049 256.704 272.299 256.898C272.549 257.092 272.84 257.225 273.15 257.289C273.47 257.335 273.795 257.335 274.115 257.289C274.019 257.608 273.995 257.946 274.045 258.276C274.096 258.606 274.219 258.921 274.407 259.197C274.737 259.714 275.214 260.12 275.776 260.364C276.021 260.41 276.272 260.41 276.517 260.364C276.462 260.585 276.462 260.817 276.517 261.038C276.966 264.72 280.581 262.766 284.038 261.532C285.744 260.948 285.722 261.038 286.777 261.891L285.205 264.293ZM303.345 221.638C300.843 221 298.271 220.683 295.689 220.695C294.657 220.695 294.769 220.942 294.814 220.695C295.196 217.732 296.7 209.47 298.72 207.225L304.782 209.47C303.3 211.289 302.649 218.562 303.3 221.728L303.345 221.638ZM303.345 208.168C302.626 207.809 299.439 206.26 298.855 205.923C298.271 205.586 298.024 205.923 297.553 206.529L296.812 206.395L303.008 199.525C302.965 200.669 303.181 201.809 303.64 202.858C304.098 203.908 304.788 204.84 305.657 205.586L303.345 208.168ZM296.812 207.405C295.403 209.929 294.418 212.667 293.893 215.509C293.375 217.726 293.015 219.976 292.816 222.244C292.81 222.36 292.827 222.476 292.867 222.584C292.908 222.693 292.969 222.793 293.049 222.877C293.129 222.961 293.225 223.028 293.332 223.073C293.438 223.119 293.553 223.142 293.669 223.142C295.049 222.418 296.644 222.219 298.159 222.581C297.892 224.87 298.217 227.189 299.102 229.316C292.065 236.49 284.653 243.287 276.899 249.678L263.9 239.149C263.9 236.5 263.9 234.075 263.721 232.122C263.519 227.049 263.384 227.004 262.755 226.285C261.019 224.535 259.15 222.921 257.165 221.458C268.323 214.791 283.656 205.609 296.924 207.45L296.812 207.405ZM285.475 260.095C283.971 260.095 280.379 261.824 278.47 261.779C278.066 261.779 277.954 261.285 277.931 260.881C279.346 259.174 283.162 258.636 283.162 257.266C283.162 257.266 282.781 256.166 281.928 256.548C280.109 257.455 278.216 258.206 276.27 258.793C276.1 258.654 275.956 258.487 275.844 258.299C275.664 257.962 275.844 257.895 275.844 257.805C277.524 256.662 279.362 255.77 281.299 255.156C281.483 255.053 281.624 254.887 281.696 254.688C281.767 254.489 281.765 254.271 281.688 254.074C281.611 253.877 281.466 253.715 281.279 253.616C281.092 253.518 280.876 253.491 280.67 253.54C278.201 254.37 278.111 254.684 276.18 255.246C275.574 255.403 273.441 256.031 273.172 255.47C272.903 254.909 274.384 253.786 275.013 253.427C277.511 252.009 280.296 251.173 283.162 250.98C285.677 250.98 285.924 251.137 291.177 254.864L287.203 261.15C286.745 260.634 286.143 260.266 285.475 260.095ZM286.395 250.15C284.021 249.4 281.473 249.4 279.099 250.15C286.379 244.039 293.284 237.494 299.775 230.551C301.533 233.424 304.194 235.635 307.341 236.837C308.302 237.252 309.35 237.429 310.394 237.353C307.049 244.672 297.283 248.758 295.016 252.372L294.095 251.811C293.916 251.701 293.701 251.665 293.495 251.711C293.29 251.757 293.11 251.881 292.995 252.058L291.693 254.123C289.695 252.507 287.226 250.621 286.395 250.172V250.15ZM326.805 186.751C326.805 187.514 326.199 188.008 326.221 188.996C326.217 189.368 326.288 189.737 326.431 190.08C326.574 190.424 326.785 190.735 327.052 190.994C327.381 191.252 327.735 191.477 328.107 191.667C328.278 191.727 328.432 191.827 328.556 191.959C328.25 192.677 328.039 193.432 327.928 194.204H327.748C328.13 193.014 327.905 191.959 327.142 191.6C324.187 190.247 320.925 189.705 317.69 190.028C317.107 190.028 316.388 191.892 316.186 192.52C315.488 192.093 314.732 191.767 313.941 191.555C314.345 190.477 314.188 189.579 313.515 189.13C311.854 188.152 310 187.546 308.082 187.357L308.553 186.145C309.117 185.902 309.594 185.495 309.923 184.977C310.439 184.281 311.337 182.53 311.629 182.732C312.302 182.934 313.066 184.214 314.794 182.867C315.388 182.305 315.936 181.697 316.433 181.048C317.112 181.487 317.817 181.884 318.544 182.238C319.958 182.553 320.968 181.228 321.552 181.026C321.844 181.385 322.338 182.059 322.472 182.193C322.842 182.465 323.268 182.649 323.72 182.731C324.171 182.813 324.635 182.79 325.076 182.665C324.627 184.865 325.75 185.224 326.783 186.773L326.805 186.751ZM330.554 171.305C326.192 169.449 321.687 167.948 317.084 166.815C316.164 166.613 309.81 165.895 309.586 165.85L309.855 165.693C313.594 164.233 317.686 163.936 321.597 164.84C329.791 167.085 343.373 173.415 348.088 180.555C349.754 182.809 351.091 185.288 352.061 187.918C349.881 186.09 347.84 184.101 345.955 181.969C341.655 177.335 336.39 173.703 330.532 171.328L330.554 171.305ZM347.975 174.089C347.975 175.099 347.729 176.087 347.616 177.075C341.936 170.811 328.377 164.795 321.125 163.425C329.05 157.139 337.895 157.611 343.104 161.831C344.822 163.352 346.157 165.257 346.999 167.391C347.842 169.524 348.169 171.827 347.953 174.111L347.975 174.089ZM281.119 168.274C314.592 168.274 311.584 168.274 311.337 168.499H310.259C308.984 168.775 307.838 169.471 307.004 170.475C305.814 172.315 306.151 172.248 306.263 173.775C305.836 174.168 305.459 174.613 305.141 175.099C304.755 175.681 304.538 176.358 304.514 177.056C304.491 177.753 304.661 178.444 305.006 179.05C304.804 179.544 304.378 180.038 304.198 180.577C304.092 180.843 304.063 181.134 304.115 181.416C304.167 181.698 304.296 181.959 304.49 182.171C304.645 182.296 304.811 182.409 304.984 182.508C305.064 182.541 305.133 182.596 305.186 182.665C305.074 183.114 304.782 183.451 304.692 183.9C304.659 184.22 304.71 184.544 304.84 184.839C304.97 185.134 305.174 185.391 305.433 185.583C305.924 185.949 306.451 186.265 307.004 186.526L306.735 187.245H305.096C304.647 187.245 303.996 188.367 303.794 188.771C303.172 189.702 302.84 190.795 302.84 191.914C302.84 193.033 303.172 194.127 303.794 195.057C303.443 196.055 303.195 197.085 303.053 198.133L295.487 206.395C289.062 206.139 282.656 207.257 276.697 209.672C269.419 212.62 262.43 216.234 255.818 220.471C253.102 218.405 249.959 216.115 247.22 214.207C267.066 208.819 295.42 181.048 281.119 168.274ZM225.847 201.253C233.211 205.182 257.659 222.85 261.543 227.228C261.97 227.744 262.014 227.228 262.194 232.212C262.463 239.98 262.531 257.917 261.363 265.528C260.712 265.011 226.409 238.049 224.433 236.612C224.298 233.155 225.174 204.935 225.847 201.253ZM148.17 284.318C148.013 284.318 147.901 284.318 147.834 284.184C147.766 284.049 147.834 283.286 148.148 282.814C149.405 280.569 152.279 279.065 156.275 275.069C157.215 274.224 157.978 273.202 158.52 272.061C158.812 270.938 159.306 266.179 159.44 264.832H172.484C171.744 268.76 170.808 272.649 169.678 276.483C166.49 278.055 151.718 285.104 148.17 284.318ZM166.13 287.192C164.2 287.192 152.234 287.461 150.415 287.192C150.336 286.754 150.336 286.305 150.415 285.867C154.883 284.842 159.226 283.337 163.369 281.378H170.104C168.757 283.173 167.477 285.149 166.198 287.192H166.13ZM182.833 263.732C178.348 268.948 174.251 274.485 170.576 280.3L165.075 280.412C168.061 279.02 170.284 277.853 170.576 277.718C170.818 277.562 171.007 277.335 171.114 277.067C172.166 273.005 172.961 268.881 173.494 264.72C176.323 264.72 177.333 264.72 177.602 264.001C178.321 262.43 191.432 237.869 193.542 233.986C194.26 233.986 192.846 232.773 203.577 246.737C214.263 243.908 223.939 243.751 238.577 249.588L243.561 253.54C234.132 249.296 223.917 245.884 213.478 246.468C209.074 246.699 204.708 247.407 200.457 248.578C193.677 252.215 188.199 258.029 182.901 263.732H182.833ZM190.04 310.36C198.077 301.56 205.014 293.276 210.739 287.484H222.682C214.196 297.025 205.71 306.611 198.301 314.985C195.489 313.592 192.753 312.048 190.107 310.36H190.04ZM178.59 349.895C176.327 349.966 174.124 349.162 172.439 347.65C174.908 343.676 201.467 313.795 224.86 287.349H233.84C186.021 341.723 179.196 349.513 178.59 349.895ZM208.134 318.847C216.239 309.53 225.668 298.754 235.591 287.417C238.779 287.417 241.001 287.551 241.877 287.686C248.926 300.707 264.17 305.646 278.807 307.577L290.818 314.312C284.114 318.029 276.85 320.63 269.311 322.012C249.914 325.806 223.49 323.965 208.134 318.847ZM291.199 314.94L276.18 333.506L260.084 324.526C271.005 323.506 281.597 320.242 291.199 314.94ZM247.175 325.379C251.059 325.379 254.673 325.11 258.063 324.773L275.237 334.562L272.094 338.445L247.175 325.379ZM307.79 353.083C307.361 354.168 306.795 355.194 306.106 356.136C304.176 355.171 292.861 349.266 280.266 342.666L283.23 339.074L307.79 353.083ZM251.665 374.141C250.106 373.735 248.691 372.904 247.579 371.739C247.714 371.537 267.784 346.64 293.018 315.434L298.226 318.33C265.719 357.64 253.192 372.861 251.665 374.141ZM377.879 354.767C377.171 356.328 376.337 357.83 375.387 359.257C368.652 355.979 247.422 287.417 242.483 286.272C240.013 285.643 213.769 286.272 210.896 286.272L216.104 280.928C218.821 280.928 244.234 280.928 246.299 281.467C253.034 283.443 377.048 354.767 377.856 354.767H377.879ZM304.041 311.303L298.81 308.43C304.378 304.321 309.653 296.688 313.021 290.694C315.097 291.496 317.259 292.054 319.464 292.356C319.778 292.378 320.429 291.525 304.018 311.303H304.041ZM345.955 275.585C343.762 280.33 340.216 284.321 335.763 287.057C322.293 295.274 309.564 289.302 297.598 278.751C293.376 274.582 289.756 269.844 286.844 264.675L293.826 253.562C314.727 265.932 312.572 264.293 317.892 267.369C318.319 267.593 318.79 267.84 319.913 268.491L322.27 269.906C323.887 270.848 323.46 271.073 323.954 271.095C324.829 271.095 323.954 269.389 322.585 268.222C320.838 266.962 318.917 265.963 316.882 265.258C321.024 258.188 325.567 251.359 330.487 244.806C330.543 244.735 330.569 244.644 330.559 244.553C330.548 244.463 330.502 244.38 330.431 244.324C330.359 244.267 330.268 244.241 330.178 244.252C330.087 244.262 330.005 244.308 329.948 244.38C324.829 250.872 320.092 257.656 315.76 264.697C312.998 263.328 298.743 254.662 296.094 253.046C298.181 249.656 308.419 245.255 311.606 237.106C316.748 235.849 322.023 229.653 325.076 225.365L333.607 217.866C337.827 220.802 341.209 224.787 343.418 229.428C347.269 237.898 349.347 247.066 349.525 256.368C349.903 262.968 348.679 269.562 345.955 275.585ZM392.426 192.318C394.178 192.318 398.017 193.508 398.645 194.72C398.802 194.967 395.076 200.355 350.984 254.235C350.823 251.15 350.433 248.081 349.816 245.053C373.344 215.958 391.775 193.127 392.449 192.318H392.426ZM385.691 199.413C378.261 208.393 364.993 224.512 349.48 243.392C348.31 238.445 346.655 233.625 344.541 229.002C342.228 224.297 338.741 220.268 334.416 217.305C334.508 217.169 334.545 217.003 334.52 216.841C334.495 216.679 334.41 216.532 334.281 216.43C332.485 215.24 329.297 213.623 327.546 212.658C327.498 212.632 327.445 212.618 327.391 212.617C327.337 212.616 327.283 212.629 327.235 212.653C327.186 212.677 327.144 212.713 327.112 212.757C327.081 212.8 327.06 212.851 327.052 212.905L325.256 211.917L326.715 207.427C327.246 207.798 327.863 208.027 328.507 208.094C329.151 208.161 329.801 208.063 330.397 207.809C330.669 207.613 330.911 207.378 331.116 207.113C331.747 207.501 332.466 207.727 333.206 207.77C333.946 207.813 334.686 207.672 335.359 207.36C336.304 206.76 337.078 205.924 337.604 204.935C338.097 204.217 338.187 204.082 339.489 204.105C340.749 204.302 342.036 204.004 343.081 203.274C344.244 202.07 344.889 200.458 344.877 198.784C346.028 198.312 347.004 197.495 347.671 196.446C348.339 195.397 348.665 194.167 348.604 192.924C356.955 194.159 377.385 197.235 385.691 199.48V199.413ZM352.016 109.343C352.488 108.243 353.543 108.557 354.621 109.096C355.698 109.635 355.721 110.623 355.9 111.745C356.888 117.515 363.444 109.186 365.329 112.037C366.197 113.479 366.493 115.192 366.16 116.841C365.723 117.621 365.235 118.371 364.701 119.086C364.604 119.203 364.551 119.35 364.551 119.502C364.551 119.653 364.604 119.8 364.701 119.917C366.452 121.668 371.301 118.705 373.142 120.568C373.882 121.455 374.35 122.538 374.49 123.685C374.629 124.832 374.434 125.995 373.928 127.034C373.277 128.673 371.817 130.109 372.177 130.873C372.536 131.636 372.962 131.434 373.479 130.873C373.995 130.311 379.226 128.785 380.214 129.391C380.492 129.617 380.719 129.901 380.877 130.222C381.036 130.544 381.124 130.896 381.134 131.254C381.336 133.23 380.281 133.679 379.675 134.555C379.069 135.43 379.428 136.104 380.281 136.104C383.11 136.104 386.545 132.13 389.261 133.522C389.957 133.881 389.261 136.014 388.677 136.867C388.094 137.72 387.6 138.034 387.824 138.685C388.273 139.987 390.788 138.685 392 138.034C394.492 136.71 396.804 135.318 398.376 137.675C399.226 139.098 399.522 140.785 399.206 142.412C399.094 142.861 398.017 144.118 397.927 144.657C397.747 145.622 398.892 145.757 399.835 145.577C401.788 145.218 405.492 143.332 405.56 144.5C405.56 146.139 402.911 149.865 402.911 150.786C402.933 150.996 403.033 151.191 403.19 151.332C403.348 151.473 403.552 151.55 403.764 151.549C403.988 151.549 409.129 151.123 409.444 151.212C412.968 152.088 409.309 156.556 410.97 158.217C412.048 159.317 413.978 158.217 415.617 157.7C415.797 157.7 416.358 157.521 416.448 157.7C417.054 158.935 413.956 159.945 412.699 160.641C411.442 161.337 411.487 162.639 412.295 162.886C412.682 162.942 413.075 162.942 413.462 162.886C415.707 163.627 416.021 166.187 415.954 168.544C412.789 168.387 369.685 166.927 369.527 166.927C364.795 148.993 358.863 131.398 351.77 114.26C351.573 112.619 351.657 110.956 352.016 109.343ZM372.064 183.428C367.42 183.953 362.81 184.747 358.258 185.808C356.955 186.145 355.811 186.526 354.868 186.818C354.778 186.836 354.7 186.889 354.649 186.964C354.599 187.04 354.58 187.133 354.598 187.222C354.616 187.312 354.669 187.39 354.744 187.441C354.82 187.491 354.913 187.509 355.002 187.492L357.113 187.334C360.859 186.986 364.574 186.356 368.225 185.449C369.579 185.067 370.913 184.618 372.221 184.102C373.149 187.918 374.032 191.832 374.871 195.843C371.166 195.214 353.004 192.498 348.267 191.847C348.239 191.442 348.081 191.056 347.818 190.747C348.347 189.712 348.754 188.62 349.031 187.492C349.846 188.334 350.749 189.086 351.725 189.737C352.735 190.163 354.239 189.355 353.588 187.02C352.439 184.182 350.93 181.504 349.098 179.05C349.21 177.501 349.48 175.975 349.659 174.358C349.985 171.13 349.295 167.88 347.685 165.063C346.075 162.246 343.626 160.002 340.679 158.643C337.973 157.627 335.069 157.251 332.193 157.543C331.654 152.133 331.116 146.565 330.554 141.132C331.469 141.143 332.384 141.098 333.293 140.998C337.828 140.436 342.296 139.42 346.628 137.967C346.718 137.949 346.796 137.896 346.847 137.821C346.897 137.745 346.916 137.652 346.898 137.563C346.88 137.473 346.827 137.395 346.752 137.344C346.676 137.294 346.583 137.276 346.494 137.293C341.07 137.736 335.706 138.736 330.487 140.279C326.76 103.192 325.301 92.6404 324.56 78.4071C325.423 76.1692 325.996 73.8305 326.266 71.4476C329.705 76.4971 332.709 81.8294 335.246 87.3871C335.403 87.7014 335.561 87.6565 337.244 88.1279C352.914 116.415 364.386 151.19 372.064 183.473V183.428ZM336.144 86.5564C333.427 80.7716 330.148 75.2675 326.356 70.123C326.414 69.2377 326.369 68.3487 326.221 67.4739C326.187 67.3653 326.126 67.2672 326.044 67.1887C325.961 67.1101 325.86 67.0538 325.75 67.0249C332.328 65.7677 349.457 62.7145 356.192 63.2758C385.871 65.7004 406.188 73.5803 421.903 98.5672C426.91 106.492 425.136 120.433 421.387 127.483C421.032 128.18 420.578 128.823 420.04 129.391C417.57 127.146 405.021 113.676 402.686 111.296L401.721 103.147C401.701 103.021 401.654 102.9 401.584 102.794C401.513 102.688 401.419 102.599 401.31 102.533C401.201 102.466 401.079 102.425 400.952 102.41C400.825 102.396 400.697 102.41 400.576 102.451L393.841 105.055L369.46 95.065C366.34 86.6687 366.564 86.8707 366.003 86.7585C365.442 86.6462 365.711 86.5789 359.627 92.7751L336.144 86.5564Z" fill="#7E7E81"/>
</svg>
