<svg width="24" height="24" viewBox="0 0 24 24" fill="none" xmlns="http://www.w3.org/2000/svg">
<path d="M3.4325 12.9584C3.66768 15.0608 4.6674 17.0035 6.2415 18.417C7.81561 19.8305 9.8543 20.6161 11.9699 20.6245C14.0854 20.6328 16.1303 19.8634 17.7155 18.4624C19.3008 17.0615 20.3159 15.1268 20.5677 13.0262C20.8195 10.9257 20.2906 8.80588 19.0814 7.0699C17.8723 5.33393 16.0672 4.10291 14.0097 3.61096C11.9521 3.11901 9.78544 3.40045 7.92182 4.40175C6.0582 5.40306 4.6276 7.05438 3.90208 9.04166" stroke="#CC5A47" stroke-width="2" stroke-linecap="round" stroke-linejoin="round"/>
<path d="M3.375 4.33423V9.1259H8.16667" stroke="#CC5A47" stroke-width="2" stroke-linecap="round" stroke-linejoin="round"/>
<path d="M11.0417 12.0001C11.0417 12.1259 11.0665 12.2505 11.1146 12.3668C11.1628 12.4831 11.2334 12.5887 11.3224 12.6777C11.4114 12.7667 11.517 12.8373 11.6333 12.8855C11.7496 12.9336 11.8742 12.9584 12 12.9584C12.1259 12.9584 12.2505 12.9336 12.3668 12.8855C12.483 12.8373 12.5887 12.7667 12.6777 12.6777C12.7667 12.5887 12.8372 12.4831 12.8854 12.3668C12.9336 12.2505 12.9584 12.1259 12.9584 12.0001C12.9584 11.8742 12.9336 11.7496 12.8854 11.6333C12.8372 11.5171 12.7667 11.4114 12.6777 11.3224C12.5887 11.2334 12.483 11.1629 12.3668 11.1147C12.2505 11.0665 12.1259 11.0417 12 11.0417C11.8742 11.0417 11.7496 11.0665 11.6333 11.1147C11.517 11.1629 11.4114 11.2334 11.3224 11.3224C11.2334 11.4114 11.1628 11.5171 11.1146 11.6333C11.0665 11.7496 11.0417 11.8742 11.0417 12.0001Z" stroke="#CC5A47" stroke-width="2" stroke-linecap="round" stroke-linejoin="round"/>
</svg>
